<svg width="233" height="177" xmlns="http://www.w3.org/2000/svg" xmlns:svg="http://www.w3.org/2000/svg">
 <g>
  <title>background</title>
  <rect fill="none" id="canvas_background" height="179" width="235" y="-1" x="-1"/>
 </g>
 <g>
  <title>Layer 1</title>
  <path id="svg_1" d="m26.717911,174.366959c-2.719,0 -5.481001,-0.468002 -8.185001,-1.449005c-12.421,-4.523987 -18.825998,-18.258011 -14.305997,-30.682999l44.923997,-123.426994c4.52,-12.421 18.254997,-18.823002 30.682999,-14.306001c12.421013,4.524 18.826004,18.257997 14.306,30.683l-44.923992,123.426994c-3.538002,9.716003 -12.720001,15.75499 -22.498001,15.75499l0,0.000015l-0.000002,0l-0.000002,0z" fill="#C3364F"/>
  <path id="svg_2" d="m116.569908,174.344971c-9.781998,0 -18.959,-6.033997 -22.498001,-15.759003l-44.920998,-123.422997c-4.521,-12.421001 1.883999,-26.155003 14.309002,-30.68c12.438999,-4.517 26.159,1.888 30.679996,14.308998l44.921005,123.422997c4.520004,12.421021 -1.883987,26.154999 -14.309006,30.680008c-2.700996,0.981995 -5.465996,1.450012 -8.181999,1.450012l0,-0.000015z" fill="#2F7E91"/>
  <path id="svg_3" d="m116.562912,174.366959c-2.719002,0 -5.481003,-0.468002 -8.185013,-1.449005c-12.420998,-4.523987 -18.825996,-18.258011 -14.306,-30.682999l44.923996,-123.426994c4.520004,-12.421 18.250992,-18.823002 30.682999,-14.306001c12.421021,4.524 18.826004,18.257997 14.306,30.683l-44.923996,123.426994c-3.53801,9.716003 -12.720001,15.75499 -22.498001,15.75499l0.000015,0.000015z" fill="#3FAAF1"/>
  <path id="svg_4" d="m206.414902,174.344971c-9.781998,0 -18.959,-6.033997 -22.498001,-15.759003l-44.921005,-123.422997c-4.521011,-12.421001 1.883987,-26.155003 14.309006,-30.68c12.438995,-4.517 26.158997,1.888 30.679993,14.308998l44.921005,123.422997c4.520004,12.421021 -1.884003,26.154999 -14.309006,30.680008c-2.700989,0.981995 -5.465988,1.450012 -8.181992,1.450012l0,-0.000015z" fill="#002F7B"/>
 </g>
</svg>